<?xml version="1.0" standalone="no"?>
<!DOCTYPE svg PUBLIC "-//W3C//DTD SVG 20010904//EN"
 "http://www.w3.org/TR/2001/REC-SVG-20010904/DTD/svg10.dtd">
<svg version="1.0" xmlns="http://www.w3.org/2000/svg"
 width="225.000000pt" height="225.000000pt" viewBox="0 0 225.000000 225.000000"
 preserveAspectRatio="xMidYMid meet">
<metadata>
Created by potrace 1.14, written by Peter Selinger 2001-2017
</metadata>
<g transform="translate(0.000000,225.000000) scale(0.100000,-0.100000)"
fill="#000000" stroke="none">
<path d="M2058 2223 c-16 -2 -28 -8 -28 -11 0 -4 29 -36 63 -70 55 -55 67 -62
90 -57 29 8 29 5 6 96 -12 49 -36 56 -131 42z"/>
<path d="M1788 2167 c-32 -6 -58 -13 -58 -16 0 -4 28 -35 63 -69 l64 -63 66
12 c37 7 67 15 67 19 0 11 -127 130 -137 129 -4 -1 -34 -6 -65 -12z"/>
<path d="M1488 2107 c-27 -6 -48 -13 -48 -16 0 -4 28 -35 63 -69 l63 -62 59
11 c33 7 62 14 64 16 9 7 -124 133 -139 132 -8 -1 -36 -6 -62 -12z"/>
<path d="M1235 2055 c-5 -2 -28 -6 -49 -10 l-39 -6 67 -68 67 -67 57 9 c31 6
59 12 61 14 3 2 -24 33 -59 68 -59 60 -77 70 -105 60z"/>
<path d="M1010 1956 c0 -17 7 -29 18 -32 49 -15 53 -25 38 -91 -4 -19 -4 -33
1 -33 5 0 16 15 24 33 18 40 59 48 99 18 15 -11 30 -17 34 -14 7 7 -83 122
-105 134 -24 12 -66 11 -74 -1 -5 -8 -11 -7 -21 1 -11 9 -14 7 -14 -15z m80
-14 c0 -13 -12 -22 -22 -16 -10 6 -1 24 13 24 5 0 9 -4 9 -8z"/>
<path d="M1271 1846 c-9 -10 -7 -21 6 -45 17 -31 17 -32 -1 -46 -21 -16 -21
-17 12 -34 37 -19 23 -71 -20 -71 -10 0 -18 -7 -18 -15 0 -13 57 -15 443 -17
243 -1 373 -4 290 -5 l-153 -4 0 -104 0 -104 158 -4 c146 -2 142 -3 -55 -5
-244 -2 -226 6 -221 -107 l3 -60 210 -5 c139 -4 63 -6 -225 -6 -239 1 -337 2
-217 3 l217 3 0 40 0 40 -212 3 -213 2 213 3 212 2 0 40 0 40 -202 2 c-112 1
-173 3 -135 5 l67 4 0 104 0 105 -62 0 c-57 0 -60 -1 -46 -17 32 -37 45 -77
36 -110 -12 -46 -42 -52 -76 -15 -15 16 -38 33 -51 37 -41 13 -106 -3 -135
-34 -25 -26 -28 -40 -41 -162 -8 -74 -15 -137 -15 -141 0 -3 -25 9 -56 27 -31
19 -80 39 -109 46 l-53 12 5 77 c7 98 -6 140 -52 164 -48 26 -117 18 -155 -19
l-29 -28 6 -111 5 -111 -62 -30 c-34 -16 -82 -48 -106 -70 l-44 -41 -5 30 c-3
17 -10 87 -15 156 -14 165 -16 175 -51 204 -57 48 -144 45 -182 -6 l-20 -27
22 -143 c13 -79 31 -199 42 -268 11 -69 24 -152 29 -185 5 -33 17 -105 25
-160 46 -298 55 -349 66 -355 8 -6 8 -9 0 -14 -14 -9 -15 -46 -1 -46 5 0 7 6
5 13 -4 9 12 12 59 12 36 1 75 6 88 13 13 6 55 13 93 15 l70 3 -77 2 c-75 2
-77 3 -82 29 -9 45 -28 275 -23 280 3 2 22 -5 44 -17 22 -11 63 -26 91 -32
l51 -13 3 -130 3 -130 60 -3 c33 -1 94 2 135 7 64 7 68 9 27 10 l-48 1 3 131
3 131 45 15 c25 8 64 28 88 44 47 32 67 37 59 14 -9 -21 -21 -215 -14 -215 4
0 22 7 40 16 l34 16 -14 42 c-17 49 -21 205 -6 257 10 33 9 36 -8 32 -10 -3
-28 -21 -41 -40 -17 -25 -49 -47 -117 -81 l-95 -47 -125 1 c-157 1 -173 8
-230 102 -34 57 -41 77 -41 120 0 28 7 70 16 92 9 22 13 47 10 56 -8 20 10 44
32 44 9 0 42 18 74 41 86 60 156 83 258 83 67 0 95 -4 134 -22 105 -48 144
-95 157 -190 8 -55 18 -77 26 -54 12 32 99 135 139 163 24 18 41 36 38 40 -3
5 1 9 8 9 7 0 47 13 88 29 135 53 282 51 409 -5 52 -24 66 -25 204 -23 81 1
150 -1 154 -5 3 -3 -60 -6 -142 -6 l-148 0 41 -29 c22 -16 43 -34 47 -40 4 -7
53 -11 129 -11 103 0 126 3 137 17 11 12 16 88 21 337 4 177 10 354 13 394 l7
72 -35 0 c-33 0 -38 -4 -81 -80 l-47 -80 -74 0 c-41 0 -75 2 -75 4 0 2 18 35
40 74 22 38 40 72 40 76 0 4 -30 6 -67 4 l-68 -3 -45 -77 -45 -78 -78 0 -79 0
20 33 c11 17 32 53 47 80 l27 47 -70 0 -70 0 -46 -80 -47 -80 -74 0 c-41 0
-75 3 -75 6 0 3 18 36 40 73 22 37 40 70 40 74 0 14 -127 7 -139 -7z"/>
<path d="M1450 1505 l0 -105 125 0 125 0 0 105 0 105 -125 0 -125 0 0 -105z"/>
<path d="M1719 1605 c0 -3 -1 -49 -1 -102 l-1 -98 52 -3 51 -3 0 105 0 106
-50 0 c-27 0 -50 -2 -51 -5z"/>
<path d="M779 1106 l-36 -11 19 -30 c11 -18 18 -46 17 -70 -3 -65 -3 -65 32
-53 20 7 28 15 25 25 -3 8 2 16 12 20 53 19 66 62 31 107 -22 28 -43 31 -100
12z m56 -56 c0 -7 -6 -15 -12 -17 -8 -3 -13 4 -13 17 0 13 5 20 13 18 6 -3 12
-11 12 -18z"/>
<path d="M1509 1089 c-21 -6 -46 -20 -57 -32 l-21 -22 122 3 c106 3 123 1 134
-14 26 -35 16 -43 -34 -28 -59 18 -127 18 -186 0 -34 -10 -47 -11 -51 -2 -2 6
-5 -7 -5 -29 -2 -89 65 -155 156 -155 49 0 58 4 95 38 35 33 41 45 46 92 4 39
0 62 -13 86 -29 54 -114 82 -186 63z"/>
<path d="M617 1076 c-16 -12 -17 -18 -7 -37 7 -12 10 -41 7 -65 -5 -48 2 -54
57 -54 74 0 109 98 52 146 -31 27 -81 31 -109 10z m77 -59 c16 -25 -16 -56
-38 -37 -19 15 -20 32 -4 48 15 15 28 11 42 -11z"/>
<path d="M485 1050 c-11 -5 -28 -11 -37 -14 -15 -4 -14 -11 8 -77 14 -40 26
-75 28 -77 2 -1 16 0 30 4 17 4 25 11 22 20 -3 8 6 20 24 29 16 8 32 26 36 39
6 24 -10 65 -30 78 -14 10 -56 9 -81 -2z m48 -54 c6 -16 -2 -28 -14 -20 -12 7
-11 34 0 34 5 0 11 -6 14 -14z"/>
<path d="M983 998 c-18 -9 -20 -14 -12 -36 13 -34 8 -36 -31 -7 -25 19 -37 22
-51 14 -22 -11 -25 -39 -5 -39 24 0 56 -50 56 -87 0 -19 4 -32 10 -28 5 3 7
20 3 37 l-6 32 30 -22 c33 -23 68 -29 78 -12 6 10 -35 160 -44 159 -3 0 -16
-5 -28 -11z"/>
<path d="M800 889 c-33 -13 -35 -16 -21 -33 7 -8 14 -40 16 -71 1 -31 5 -58 8
-61 2 -3 17 -2 32 2 23 6 26 10 20 33 l-7 26 24 -22 c20 -19 27 -20 51 -10
l29 12 -26 24 c-19 18 -23 28 -16 42 7 11 7 27 0 43 -8 22 -16 26 -47 25 -21
0 -49 -5 -63 -10z m52 -61 c-15 -15 -26 -4 -18 18 5 13 9 15 18 6 9 -9 9 -15
0 -24z"/>
<path d="M1280 870 c-35 -50 -60 -115 -66 -179 -6 -57 -19 -77 -29 -48 -3 6 3
64 13 129 22 136 11 148 -38 42 -36 -76 -37 -100 -7 -145 59 -88 195 -88 254
0 48 72 21 176 -57 216 -40 21 -46 19 -70 -15z"/>
<path d="M1771 882 c-50 -25 -74 -63 -78 -124 -5 -67 18 -107 79 -137 52 -25
98 -27 137 -6 39 19 81 72 81 98 -1 17 -4 14 -16 -13 -16 -37 -42 -70 -56 -70
-4 0 -8 19 -8 43 0 23 -5 60 -11 82 -13 48 -69 145 -84 145 -5 0 -25 -8 -44
-18z"/>
<path d="M1890 889 c14 -6 34 -18 45 -27 12 -9 8 -5 -7 11 -16 15 -36 27 -46
26 -12 0 -9 -3 8 -10z"/>
<path d="M627 863 c-24 -28 -32 -89 -13 -96 9 -4 21 -18 26 -32 8 -20 16 -25
43 -25 73 0 112 85 66 144 -16 21 -29 26 -63 26 -28 0 -48 -6 -59 -17z m78
-53 c8 -25 -1 -40 -25 -40 -22 0 -34 28 -19 46 16 20 37 17 44 -6z"/>
<path d="M503 840 c-48 -19 -58 -95 -18 -135 30 -31 83 -33 116 -6 23 19 23
19 5 40 -16 18 -21 19 -38 6 -27 -18 -48 -9 -48 21 0 23 8 28 41 25 16 -2 33
42 21 54 -8 8 -54 5 -79 -5z"/>
<path d="M1485 750 c4 -6 11 -8 16 -5 14 9 11 15 -7 15 -8 0 -12 -5 -9 -10z"/>
<path d="M1620 749 c0 -5 5 -7 10 -4 6 3 10 8 10 11 0 2 -4 4 -10 4 -5 0 -10
-5 -10 -11z"/>
<path d="M2081 744 c0 -11 3 -14 6 -6 3 7 2 16 -1 19 -3 4 -6 -2 -5 -13z"/>
<path d="M1522 714 c-46 -32 -18 -114 39 -114 30 0 43 9 58 37 16 31 14 41
-14 68 -28 29 -51 31 -83 9z"/>
<path d="M2092 660 c0 -14 2 -19 5 -12 2 6 2 18 0 25 -3 6 -5 1 -5 -13z"/>
<path d="M1445 630 c-3 -5 -1 -10 4 -10 6 0 11 5 11 10 0 6 -2 10 -4 10 -3 0
-8 -4 -11 -10z"/>
<path d="M1660 630 c0 -5 5 -10 10 -10 6 0 10 5 10 10 0 6 -4 10 -10 10 -5 0
-10 -4 -10 -10z"/>
<path d="M2082 585 c0 -16 2 -22 5 -12 2 9 2 23 0 30 -3 6 -5 -1 -5 -18z"/>
<path d="M1355 572 c-51 -12 -108 -67 -94 -93 22 -42 105 -113 161 -139 l62
-27 -32 -17 c-39 -20 -72 -20 -120 -1 l-37 15 24 -20 c31 -26 105 -27 147 -1
37 22 74 93 74 140 0 43 -34 103 -70 124 -29 18 -83 26 -115 19z"/>
<path d="M1692 569 c-19 -4 -47 -19 -63 -35 -97 -93 -25 -267 108 -263 l38 1
-46 8 c-26 4 -57 14 -70 20 -22 13 -21 14 31 37 68 30 114 65 150 114 21 30
29 35 34 23 10 -27 7 -73 -8 -109 -18 -43 -12 -46 9 -5 21 40 19 99 -5 137
-32 52 -114 86 -178 72z"/>
<path d="M1555 550 c-3 -5 -1 -10 4 -10 6 0 11 5 11 10 0 6 -2 10 -4 10 -3 0
-8 -4 -11 -10z"/>
<path d="M2071 534 c0 -11 3 -14 6 -6 3 7 2 16 -1 19 -3 4 -6 -2 -5 -13z"/>
<path d="M2061 502 c-2 -32 -69 -147 -112 -192 -58 -60 -153 -123 -222 -146
-29 -10 -99 -21 -157 -24 l-105 -7 85 -1 c150 -3 274 45 383 149 58 56 59 56
68 32 5 -13 9 -27 9 -31 0 -23 65 -82 107 -96 69 -24 78 -21 91 23 17 56 16
58 -37 63 -51 5 -129 46 -149 79 -9 14 -5 30 19 78 17 34 28 67 26 74 -4 9 -6
9 -6 -1z"/>
<path d="M1236 458 c-3 -13 -5 -34 -5 -48 1 -15 5 -7 10 19 9 47 6 68 -5 29z"/>
<path d="M1497 285 c-31 -27 -95 -48 -123 -40 -11 3 -5 -1 11 -9 17 -8 32 -10
33 -5 2 5 14 9 27 9 13 0 30 7 39 15 8 9 18 16 21 15 3 0 5 3 4 6 0 3 8 12 18
20 10 7 14 13 8 13 -5 0 -22 -11 -38 -24z"/>
<path d="M1317 189 c7 -7 15 -10 18 -7 3 3 -2 9 -12 12 -14 6 -15 5 -6 -5z"/>
</g>
</svg>
